<?xml version="1.0" encoding="utf-8"?>
<!-- Generator: Adobe Illustrator 19.0.1, SVG Export Plug-In . SVG Version: 6.00 Build 0)  -->
<svg version="1.1" id="Layer_1" xmlns="http://www.w3.org/2000/svg" xmlns:xlink="http://www.w3.org/1999/xlink" x="0px" y="0px"
	 viewBox="0 0 200 200" style="enable-background:new 0 0 200 200;" xml:space="preserve">
<style type="text/css">
	.st0{fill:#FF814A;}
</style>
<path d="M25,0h150c13.8,0,25,11.3,25,25v150c0,13.8-11.3,25-25,25H25c-13.8,0-25-11.3-25-25V25C0,11.3,11.3,0,25,0z"/>
<path class="st0" d="M172,115H28c-1.7,0-3-1.3-3-3V88c0-1.7,1.3-3,3-3h144c1.7,0,3,1.3,3,3v24C175,113.7,173.7,115,172,115z"/>
</svg>
